<svg xmlns="http://www.w3.org/2000/svg" viewBox="0 0 400 400" width="400" height="400">
  <defs>
    <filter id="shadow" x="-20%" y="-20%" width="140%" height="140%">
      <feOffset result="offOut" in="SourceAlpha" dx="2" dy="2" />
      <feGaussianBlur result="blurOut" in="offOut" stdDeviation="2" />
      <feBlend in="SourceGraphic" in2="blurOut" mode="normal" />
    </filter>
  </defs>
  
  <!-- Full Grey Background -->
  <rect width="400" height="400" fill="#f0f0f0"/>
  
  <!-- White Square (centered, matching AI frame dimensions) -->
  <rect x="24" y="24" width="352" height="352" fill="white" filter="url(#shadow)"/>
  
  <!-- Illustration (Travel V3 content) -->
  <g transform="translate(200, 200) scale(1.0)">
    <g transform="translate(-140, -140)">
      <g transform="translate(100, 100)">
        <circle cx="0" cy="0" r="50" stroke="#333" stroke-width="1.2" fill="none"/>
        <ellipse cx="0" cy="0" rx="15" ry="50" stroke="#333" stroke-width="0.8" fill="none" opacity="0.4"/>
        <ellipse cx="0" cy="0" rx="50" ry="15" stroke="#333" stroke-width="0.8" fill="none" opacity="0.4"/>
        <path d="M-30 -10 Q -10 -25, 10 -15 T 25 -25" stroke="#333" stroke-width="1" opacity="0.6"/>
      </g>
      <g transform="translate(140, 160)">
        <rect x="0" y="0" width="110" height="80" rx="2" stroke="#333" stroke-width="1.5" fill="none"/>
        <rect x="25" y="0" width="12" height="80" stroke="#333" stroke-width="1" fill="none"/>
        <rect x="73" y="0" width="12" height="80" stroke="#333" stroke-width="1" fill="none"/>
        <rect x="25" y="15" width="12" height="12" fill="#EAB308" opacity="0.8"/>
        <rect x="73" y="15" width="12" height="12" fill="#EAB308" opacity="0.8"/>
        <path d="M35 0 L35 -12 Q 55 -20 75 -12 L75 0" stroke="#333" stroke-width="1.5" fill="none"/>
      </g>
      <g transform="translate(220, 80) rotate(-15)">
        <path d="M0 0 L40 5 L55 25 L40 12 L10 16 L0 35 L5 12 L-20 10 Z" stroke="#333" stroke-width="1.5" fill="none"/>
        <line x1="5" y1="12" x2="40" y2="12" stroke="#EAB308" stroke-width="1"/>
      </g>
      <text x="30" y="250" font-family="monospace" font-size="7" fill="#EAB308" opacity="0.6">COORD: 48.1486° N</text>
    </g>
  </g>
</svg>
